<?xml version="1.0" standalone="no"?>
<!DOCTYPE svg PUBLIC "-//W3C//DTD SVG 20010904//EN"
 "http://www.w3.org/TR/2001/REC-SVG-20010904/DTD/svg10.dtd">
<svg version="1.0" xmlns="http://www.w3.org/2000/svg"
 width="512.000000pt" height="512.000000pt" viewBox="0 0 512.000000 512.000000"
 preserveAspectRatio="xMidYMid meet">

<g transform="translate(0.000000,512.000000) scale(0.100000,-0.100000)"
fill="currentColor" stroke="currentColor">
<path d="M2480 4880 l0 -160 80 0 80 0 0 160 0 160 -80 0 -80 0 0 -160z"/>
<path d="M1517 4722 c-26 -26 -47 -52 -47 -58 0 -5 52 -61 115 -124 l115 -115
57 58 58 57 -115 115 c-63 63 -119 115 -125 115 -6 0 -32 -22 -58 -48z"/>
<path d="M3422 4657 c-61 -62 -112 -117 -112 -123 0 -13 92 -104 106 -104 5 0
61 52 124 115 l114 115 -54 55 c-30 30 -57 55 -60 55 -3 0 -56 -51 -118 -113z"/>
<path d="M2397 4544 c-288 -52 -551 -270 -656 -544 -44 -113 -61 -227 -61
-406 l0 -154 -55 0 c-46 0 -60 -4 -80 -25 -25 -24 -25 -26 -25 -215 0 -189 0
-191 25 -215 l24 -25 991 0 991 0 24 25 c25 24 25 26 25 215 0 189 0 191 -25
215 -20 21 -34 25 -80 25 l-55 0 0 154 c0 249 -35 391 -136 553 -189 304 -550
462 -907 397z m378 -178 c113 -36 198 -89 290 -181 92 -92 144 -176 182 -290
23 -72 26 -100 31 -267 l4 -188 -722 0 -722 0 4 188 c5 165 8 196 30 264 39
118 92 204 182 294 110 110 236 177 381 204 88 16 250 4 340 -24z m665 -1166
l0 -80 -880 0 -880 0 0 80 0 80 880 0 880 0 0 -80z"/>
<path d="M957 3842 c-26 -26 -47 -52 -47 -57 0 -5 21 -31 47 -57 l47 -48 -317
0 -318 0 -24 -25 -25 -24 0 -1111 0 -1111 25 -24 24 -25 256 0 255 0 0 80 0
80 -200 0 -200 0 0 1000 0 1000 262 0 262 0 -49 -50 -50 -50 58 -58 57 -57
130 131 c171 172 171 156 3 326 -70 70 -132 128 -138 128 -6 0 -32 -22 -58
-48z"/>
<path d="M3967 3762 c-168 -170 -168 -154 3 -326 l130 -131 57 57 58 58 -50
50 -49 50 262 0 262 0 0 -1000 0 -1000 -200 0 -200 0 0 -80 0 -80 255 0 256 0
24 25 25 24 0 1111 0 1111 -25 24 -24 25 -318 0 -317 0 47 48 c26 26 47 52 47
58 0 13 -93 104 -106 104 -5 0 -67 -58 -137 -128z"/>
<path d="M1285 2791 c-90 -22 -172 -90 -215 -176 l-25 -50 0 -1125 0 -1125 23
-45 c35 -72 75 -114 144 -151 l63 -34 1285 0 1285 0 63 34 c70 38 100 69 140
145 l27 51 0 1125 0 1125 -34 63 c-37 69 -79 109 -151 144 l-45 23 -1265 2
c-696 0 -1278 -2 -1295 -6z m2561 -177 c15 -11 37 -33 48 -48 21 -27 21 -32
21 -1126 0 -1094 0 -1099 -21 -1126 -11 -15 -33 -37 -48 -48 -27 -21 -30 -21
-1286 -21 -1256 0 -1259 0 -1286 21 -15 11 -37 33 -48 48 -21 27 -21 35 -24
1099 -1 590 0 1086 3 1104 7 40 49 91 90 109 24 11 256 13 1277 11 1242 -2
1247 -2 1274 -23z"/>
<path d="M1385 2455 l-25 -24 0 -351 0 -351 25 -24 24 -25 1151 0 1151 0 24
25 25 24 0 351 0 351 -25 24 -24 25 -1151 0 -1151 0 -24 -25z m2215 -375 l0
-240 -1040 0 -1040 0 0 240 0 240 1040 0 1040 0 0 -240z"/>
<path d="M1680 2080 l0 -80 80 0 80 0 0 80 0 80 -80 0 -80 0 0 -80z"/>
<path d="M2000 2080 l0 -80 80 0 80 0 0 80 0 80 -80 0 -80 0 0 -80z"/>
<path d="M2320 2080 l0 -80 80 0 80 0 0 80 0 80 -80 0 -80 0 0 -80z"/>
<path d="M2640 2080 l0 -80 80 0 80 0 0 80 0 80 -80 0 -80 0 0 -80z"/>
<path d="M2960 2080 l0 -80 80 0 80 0 0 80 0 80 -80 0 -80 0 0 -80z"/>
<path d="M3280 2080 l0 -80 80 0 80 0 0 80 0 80 -80 0 -80 0 0 -80z"/>
<path d="M1385 1495 c-25 -24 -25 -26 -25 -215 0 -257 -17 -240 240 -240 257
0 240 -17 240 240 0 257 17 240 -240 240 -189 0 -191 0 -215 -25z m295 -215
l0 -80 -80 0 -80 0 0 80 0 80 80 0 80 0 0 -80z"/>
<path d="M2025 1495 c-25 -24 -25 -26 -25 -215 0 -257 -17 -240 240 -240 257
0 240 -17 240 240 0 257 17 240 -240 240 -189 0 -191 0 -215 -25z m295 -215
l0 -80 -80 0 -80 0 0 80 0 80 80 0 80 0 0 -80z"/>
<path d="M2665 1495 c-25 -24 -25 -26 -25 -215 0 -257 -17 -240 240 -240 257
0 240 -17 240 240 0 257 17 240 -240 240 -189 0 -191 0 -215 -25z m295 -215
l0 -80 -80 0 -80 0 0 80 0 80 80 0 80 0 0 -80z"/>
<path d="M3305 1495 c-25 -24 -25 -26 -25 -215 0 -257 -17 -240 240 -240 257
0 240 -17 240 240 0 257 17 240 -240 240 -189 0 -191 0 -215 -25z m295 -215
l0 -80 -80 0 -80 0 0 80 0 80 80 0 80 0 0 -80z"/>
<path d="M1385 855 c-25 -24 -25 -26 -25 -215 0 -257 -17 -240 240 -240 257 0
240 -17 240 240 0 257 17 240 -240 240 -189 0 -191 0 -215 -25z m295 -215 l0
-80 -80 0 -80 0 0 80 0 80 80 0 80 0 0 -80z"/>
<path d="M2025 855 c-25 -24 -25 -26 -25 -215 0 -257 -17 -240 240 -240 257 0
240 -17 240 240 0 257 17 240 -240 240 -189 0 -191 0 -215 -25z m295 -215 l0
-80 -80 0 -80 0 0 80 0 80 80 0 80 0 0 -80z"/>
<path d="M2665 855 c-25 -24 -25 -26 -25 -215 0 -257 -17 -240 240 -240 257 0
240 -17 240 240 0 257 17 240 -240 240 -189 0 -191 0 -215 -25z m295 -215 l0
-80 -80 0 -80 0 0 80 0 80 80 0 80 0 0 -80z"/>
<path d="M3305 855 c-25 -24 -25 -26 -25 -215 0 -257 -17 -240 240 -240 257 0
240 -17 240 240 0 257 17 240 -240 240 -189 0 -191 0 -215 -25z m295 -215 l0
-80 -80 0 -80 0 0 80 0 80 80 0 80 0 0 -80z"/>
</g>
</svg>
