<?xml version="1.0" standalone="no"?>
<!DOCTYPE svg PUBLIC "-//W3C//DTD SVG 20010904//EN"
 "http://www.w3.org/TR/2001/REC-SVG-20010904/DTD/svg10.dtd">
<svg version="1.0" xmlns="http://www.w3.org/2000/svg"
 width="1024.000000pt" height="1024.000000pt" viewBox="0 0 1024.000000 1024.000000"
 preserveAspectRatio="xMidYMid meet">

<g transform="translate(0.000000,1024.000000) scale(0.100000,-0.100000)"
fill="currentColor" stroke="currentColor">
<path d="M3975 8110 l-110 -5 -3 -57 -3 -58 -649 0 -650 0 0 -102 c0 -57 4
-109 9 -117 7 -10 45 -12 185 -10 l176 4 0 -117 0 -118 -124 0 -124 0 -11 -28
c-8 -20 -11 -102 -9 -269 3 -220 5 -243 22 -262 14 -15 31 -21 60 -21 l41 0
-3 -154 -4 -155 41 -12 c29 -8 53 -9 78 -3 45 11 54 38 52 164 -1 47 -1 102 0
123 l1 37 66 0 66 0 -7 -132 c-8 -161 -2 -183 52 -191 21 -4 52 -3 68 1 l30 8
5 155 5 154 49 5 c84 9 85 12 87 308 2 211 0 255 -12 263 -8 5 -67 9 -131 9
l-118 0 0 115 0 114 33 5 c17 3 41 7 52 8 19 2 211 -180 556 -527 l119 -121 0
-1914 c0 -1052 -1 -1915 -3 -1917 -2 -1 -276 -4 -609 -5 l-606 -3 -27 -25
c-15 -14 -31 -33 -37 -43 -13 -25 7 -82 39 -107 26 -20 31 -20 2422 -20 1318
0 2445 3 2505 7 99 6 110 8 132 32 47 50 43 106 -9 145 -27 20 -40 21 -194 19
l-165 -3 6 1013 c4 556 9 1036 12 1066 l6 53 33 -36 c18 -20 42 -36 53 -36 22
0 122 110 122 133 0 6 -69 81 -152 167 -84 85 -196 203 -249 260 -53 58 -132
136 -175 175 -44 38 -105 99 -136 134 -56 63 -58 67 -58 122 0 31 3 83 6 116
l7 60 128 -1 129 -1 0 -222 0 -223 73 -54 c83 -62 116 -80 125 -71 9 9 16 696
8 740 l-7 35 -304 0 c-167 0 -315 -4 -328 -9 -23 -9 -25 -16 -32 -110 l-7
-101 -42 32 c-74 57 -265 229 -407 365 -92 89 -145 133 -160 133 -16 0 -111
-88 -323 -298 -260 -257 -671 -651 -1150 -1100 -72 -67 -132 -131 -134 -140
-3 -19 102 -142 121 -142 6 0 30 19 54 42 23 23 45 40 47 37 3 -2 7 -485 10
-1072 l6 -1067 -245 0 -244 0 -3 1923 -3 1922 165 160 c90 88 212 207 271 265
58 58 122 119 141 137 20 17 42 41 50 52 13 18 21 20 81 14 l67 -6 0 -113 0
-113 -114 2 c-83 1 -118 -2 -128 -11 -17 -17 -25 -483 -9 -524 16 -42 56 -64
92 -51 34 13 33 23 29 -153 -3 -165 -3 -164 74 -164 100 0 100 0 93 176 l-7
149 70 0 70 0 0 -146 c0 -175 4 -184 79 -183 29 0 57 6 63 12 8 8 11 46 10
115 -1 56 1 123 4 150 l6 47 43 0 c35 0 48 5 65 27 20 26 21 35 18 284 -2 142
-6 260 -10 264 -4 4 -65 7 -137 7 l-131 1 0 120 0 120 200 -6 199 -7 6 33 c3
17 5 68 3 112 l-3 80 -678 0 -677 0 0 61 c0 41 -4 63 -12 65 -7 2 -62 2 -123
-1z m-105 -502 l0 -159 -32 23 c-39 27 -264 252 -277 276 -8 16 4 17 150 18
l159 1 0 -159z m560 148 c0 -17 -301 -306 -319 -306 -3 0 -6 72 -6 159 l0 159
163 0 c118 0 162 -3 162 -12z m-1248 -518 c-2 -57 -5 -104 -6 -105 -5 -5 -321
-4 -318 1 1 3 2 53 2 111 l0 104 163 -3 162 -4 -3 -104z m1966 -2 l3 -107 -78
6 c-43 3 -117 2 -165 -2 l-88 -9 0 52 c0 28 -3 78 -6 110 l-6 59 168 -1 169
-2 3 -106z m968 -604 c76 -76 229 -226 339 -333 186 -183 372 -372 574 -585
l85 -89 4 -792 c3 -435 1 -816 -2 -846 l-7 -55 -605 -1 c-569 0 -605 1 -600
17 9 29 13 688 7 1059 -6 338 -7 353 -26 373 -20 20 -36 21 -421 27 -410 6
-455 3 -484 -32 -9 -11 -12 -195 -14 -726 l-1 -712 -80 2 c-44 1 -82 5 -84 7
-10 10 -9 1200 1 1394 6 113 11 228 11 255 l1 50 200 201 c111 110 266 262
346 337 80 75 249 237 375 361 127 124 233 225 236 226 3 0 68 -62 145 -138z
m-664 -1422 l250 0 -4 -625 -3 -625 -262 0 -263 0 0 631 c0 571 1 631 16 625
9 -3 128 -6 266 -6z m457 -1469 c10 -6 16 -35 19 -89 4 -70 2 -80 -14 -87 -11
-5 -265 -9 -566 -9 -539 -1 -547 -1 -552 19 -6 20 -8 153 -3 157 21 13 1095
22 1116 9z m1117 -17 l89 -7 2 -208 1 -208 -61 -6 c-52 -5 -761 0 -852 6 -16
1 -86 -3 -155 -10 -88 -8 -296 -11 -698 -8 -315 2 -574 6 -577 8 -2 3 2 25 9
49 l13 44 514 -3 c283 -1 550 -7 594 -12 44 -5 131 -9 193 -9 61 0 112 -4 112
-8 0 -4 -5 -13 -12 -20 -13 -13 0 -16 19 -4 7 4 16 49 20 106 10 105 6 117
-37 131 -19 6 -33 41 -56 138 l-6 27 399 0 c220 0 440 -3 489 -6z"/>
<path d="M5918 6236 c-52 -14 -63 -21 -125 -80 -93 -88 -94 -243 -2 -361 33
-41 113 -75 180 -75 140 0 264 134 263 285 -1 73 -19 112 -76 158 -88 71 -162
94 -240 73z m130 -184 c6 -9 12 -28 12 -44 0 -25 -4 -28 -32 -28 -18 0 -43 -3
-55 -6 -22 -6 -23 -3 -23 44 0 31 5 52 13 55 21 8 71 -5 85 -21z"/>
<path d="M6175 5385 l-33 -34 -6 -193 c-4 -106 -6 -211 -6 -233 1 -22 2 -123
4 -224 l3 -184 37 -34 37 -34 341 5 c368 6 368 6 404 62 15 21 15 33 6 77 -15
65 -17 254 -4 287 6 15 7 117 3 258 l-6 234 -28 24 -28 24 -346 0 -346 0 -32
-35z m295 -245 l0 -110 -74 0 c-58 0 -75 3 -80 16 -8 20 -8 85 0 152 l7 52 73
0 74 0 0 -110z m325 27 c12 -122 12 -122 -71 -125 -87 -3 -87 -2 -78 115 l7
83 68 0 67 0 7 -73z m-19 -325 c6 -4 12 -49 13 -104 l3 -98 -76 0 -76 0 0 38
c0 20 3 67 7 105 l6 67 56 0 c31 0 61 -4 67 -8z m-306 -102 l0 -100 -27 0
c-16 0 -52 -3 -80 -6 l-53 -7 0 107 0 106 80 0 80 0 0 -100z"/>
<path d="M5423 4715 c-12 -8 -27 -30 -33 -49 -33 -102 105 -183 181 -107 23
24 29 38 29 74 0 38 -5 49 -31 71 -36 30 -110 36 -146 11z"/>
<path d="M5777 7983 c-35 -5 -49 -39 -41 -96 13 -81 -64 -73 771 -82 412 -4
834 -4 938 0 l190 8 33 34 c39 42 41 71 6 112 l-26 31 -921 -1 c-507 -1 -935
-4 -950 -6z"/>
<path d="M6680 7580 c-509 -3 -933 -10 -943 -14 -39 -19 -50 -91 -19 -139 l17
-28 951 -5 951 -6 31 37 c42 47 44 95 6 130 -15 14 -30 25 -35 25 -4 0 -13 1
-21 3 -7 1 -429 0 -938 -3z"/>
<path d="M3914 2766 c-39 -17 -74 -61 -74 -93 0 -37 38 -103 66 -113 14 -6 50
-10 81 -10 49 0 59 4 89 34 37 37 45 82 22 131 -23 50 -124 78 -184 51z"/>
<path d="M4555 2770 c-55 -22 -84 -89 -61 -143 22 -55 59 -77 127 -77 51 0 63
4 91 29 29 26 33 36 33 79 0 36 -6 56 -20 72 -38 43 -118 62 -170 40z"/>
<path d="M5823 2773 c-35 -7 -73 -59 -73 -99 0 -52 25 -103 57 -115 15 -6 52
-8 82 -5 74 7 103 35 109 109 4 50 2 55 -28 80 -17 15 -40 27 -50 27 -9 0 -30
2 -46 4 -16 2 -39 2 -51 -1z"/>
<path d="M6389 2751 c-25 -25 -29 -37 -29 -81 0 -44 4 -56 29 -81 27 -26 36
-29 98 -29 62 0 72 3 94 26 19 21 24 36 24 81 0 49 -3 58 -33 84 -28 25 -40
29 -93 29 -54 0 -64 -3 -90 -29z"/>
<path d="M3383 2755 c-61 -26 -74 -106 -24 -156 25 -24 38 -29 79 -29 70 0
112 35 112 92 0 52 -14 77 -55 94 -42 17 -71 17 -112 -1z"/>
<path d="M5125 2745 c-21 -20 -25 -34 -25 -83 0 -52 4 -64 29 -91 25 -27 35
-31 78 -30 80 2 106 11 130 48 34 51 32 114 -6 152 -27 27 -35 29 -106 29 -67
0 -79 -3 -100 -25z"/>
<path d="M7018 2741 c-29 -26 -33 -35 -33 -81 0 -69 24 -90 105 -90 49 0 61 4
84 26 20 21 26 37 26 70 0 56 -7 72 -41 89 -47 25 -104 19 -141 -14z"/>
</g>
</svg>
