<?xml version="1.0" standalone="no"?>
<!DOCTYPE svg PUBLIC "-//W3C//DTD SVG 20010904//EN"
 "http://www.w3.org/TR/2001/REC-SVG-20010904/DTD/svg10.dtd">
<svg version="1.0" xmlns="http://www.w3.org/2000/svg"
 width="512.000000pt" height="512.000000pt" viewBox="0 0 512.000000 512.000000"
 preserveAspectRatio="xMidYMid meet">

<g transform="translate(0.000000,512.000000) scale(0.100000,-0.100000)"
fill="currentColor" stroke="currentColor">
<path d="M2426 5015 c-92 -33 -166 -133 -166 -226 l0 -49 -56 -25 c-213 -94
-389 -291 -463 -517 l-23 -68 -62 0 c-100 0 -101 -2 -101 -232 0 -237 -6 -228
155 -228 l107 0 5 -108 c9 -181 70 -326 196 -463 248 -268 648 -316 952 -114
196 130 317 343 328 577 l5 108 107 0 c161 0 155 -9 155 228 0 230 -1 232
-100 232 l-62 0 -32 88 c-42 118 -100 210 -190 305 -83 87 -159 143 -255 188
l-63 30 -6 59 c-9 100 -72 183 -164 216 -50 17 -217 17 -267 -1z m261 -158
l28 -27 5 -251 c5 -249 5 -251 29 -270 30 -25 62 -24 89 1 20 19 22 30 22 145
0 86 3 125 11 125 16 0 75 -36 143 -89 97 -76 206 -233 231 -333 l7 -28 -692
0 -692 0 7 28 c22 90 126 247 206 313 54 44 154 109 169 109 6 0 10 -44 10
-125 0 -115 2 -126 22 -145 29 -27 64 -25 93 5 l25 24 0 239 c0 229 1 240 21
266 31 40 53 46 151 43 81 -2 90 -4 115 -30z m743 -957 l0 -90 -870 0 -870 0
0 90 0 90 870 0 870 0 0 -90z m-270 -302 c-1 -261 -168 -484 -430 -574 -43
-15 -82 -19 -175 -18 -103 0 -129 4 -187 26 -101 38 -173 85 -244 161 -107
113 -164 253 -164 405 l0 72 600 0 600 0 0 -72z"/>
<path d="M232 4392 c-14 -14 -30 -80 -61 -243 -24 -123 -43 -228 -43 -234 -1
-33 8 -50 62 -117 l60 -73 0 -532 0 -533 -58 0 c-48 0 -62 -4 -81 -23 l-22
-24 3 -739 3 -739 24 -53 c29 -63 112 -143 175 -167 l45 -17 3 -385 3 -385 24
-19 c23 -19 66 -19 1818 -19 l1794 0 24 25 25 24 0 376 0 375 35 0 c78 0 150
58 161 130 6 35 9 38 45 43 47 6 94 38 116 80 14 25 18 58 18 157 0 149 -5
169 -51 215 l-36 36 16 77 c16 79 62 182 140 312 55 92 76 168 76 280 0 356
-311 634 -659 589 -94 -11 -128 -22 -215 -67 -99 -52 -193 -149 -245 -253 -23
-45 -41 -88 -41 -95 0 -8 -4 -14 -8 -14 -5 0 -60 27 -123 59 -128 67 -249 111
-396 143 -82 18 -131 21 -298 22 -172 0 -215 -3 -305 -23 -144 -31 -236 -62
-365 -126 -373 -182 -649 -496 -779 -885 -58 -174 -71 -255 -71 -435 0 -158 0
-161 30 -219 58 -115 196 -232 357 -305 177 -79 460 -147 733 -176 182 -20
570 -23 740 -6 413 41 745 137 942 273 l43 29 0 -251 0 -250 -1705 0 -1705 0
0 330 0 330 63 28 c71 33 137 99 170 170 22 47 22 53 25 786 l3 739 -22 24
c-19 19 -33 23 -81 23 l-58 0 0 533 0 532 60 73 c54 67 63 84 62 117 0 6 -19
111 -43 234 -31 163 -47 229 -61 243 -16 16 -36 18 -183 18 -147 0 -167 -2
-183 -18z m289 -262 c14 -74 29 -151 33 -171 6 -34 2 -42 -54 -110 l-60 -74 0
-557 0 -558 -25 0 -25 0 0 558 0 557 -61 74 c-43 53 -59 80 -56 95 3 12 18 90
34 174 l28 153 80 -3 80 -3 26 -135z m3586 -1481 c70 -24 155 -81 198 -133 19
-23 49 -73 67 -112 27 -58 33 -83 36 -161 5 -117 -7 -158 -92 -298 -66 -108
-106 -212 -125 -319 -6 -33 -11 -61 -11 -63 0 -2 -34 -3 -75 -3 l-75 0 0 263
0 262 72 40 c121 68 148 91 148 127 0 40 -25 68 -62 68 -17 0 -69 -23 -124
-55 -53 -30 -100 -55 -106 -55 -5 0 -52 25 -103 55 -99 58 -141 68 -167 38
-48 -56 -29 -87 98 -159 l103 -59 1 -262 0 -263 -75 0 c-69 0 -75 2 -79 23
-33 169 -62 244 -145 380 -68 111 -82 155 -82 258 -1 313 301 530 598 428z
m-3507 -159 l0 -30 -185 0 -185 0 0 30 0 30 185 0 185 0 0 -30z m2250 -49
c163 -37 321 -102 448 -184 l69 -45 6 -72 c7 -81 33 -144 116 -279 50 -83 92
-193 105 -277 5 -37 3 -44 -20 -59 -14 -9 -35 -37 -46 -62 -17 -39 -19 -62
-16 -172 3 -123 4 -129 32 -165 30 -40 78 -66 121 -66 21 0 25 -5 25 -28 0
-64 75 -141 140 -142 23 -1 22 -3 -20 -41 -223 -196 -845 -321 -1440 -289
-604 33 -1055 192 -1164 412 -23 46 -26 64 -26 154 0 372 187 764 483 1012
218 184 437 280 742 326 74 11 362 -4 445 -23z m-2250 -693 c0 -562 0 -572
-21 -616 -32 -64 -86 -97 -164 -97 -78 0 -132 33 -164 97 -21 44 -21 54 -21
616 l0 572 185 0 185 0 0 -572z m3664 -344 c8 -20 8 -168 0 -188 -5 -12 -20
-16 -64 -16 -43 0 -64 -5 -84 -21 -23 -18 -26 -27 -26 -85 l0 -64 -130 0 -130
0 0 59 c0 85 -18 105 -107 111 l-68 5 -3 94 c-1 52 -1 100 2 108 4 10 65 13
305 13 263 0 300 -2 305 -16z"/>
<path d="M2910 2270 c-29 -29 -26 -74 6 -99 23 -18 41 -21 129 -21 119 0 148
13 148 68 0 61 -22 72 -150 72 -100 0 -115 -2 -133 -20z"/>
<path d="M3258 1622 c-84 -84 -94 -110 -60 -153 13 -15 30 -22 52 -22 28 0 44
12 111 80 58 59 79 87 79 107 0 36 -33 66 -72 66 -26 0 -45 -13 -110 -78z"/>
<path d="M369 2111 l-24 -19 0 -417 0 -417 24 -19 c28 -23 59 -24 89 -3 l22
15 0 424 0 424 -22 15 c-30 21 -61 20 -89 -3z"/>
<path d="M3910 3270 c-18 -18 -20 -33 -20 -129 0 -127 12 -154 70 -154 57 0
70 28 70 148 0 88 -3 106 -21 129 -25 32 -70 35 -99 6z"/>
<path d="M3205 2975 c-41 -40 -33 -61 58 -152 89 -89 107 -96 151 -62 47 37
36 65 -58 157 -91 89 -112 97 -151 57z"/>
<path d="M4558 2922 c-87 -87 -99 -122 -56 -162 40 -37 65 -27 156 64 76 76
84 88 78 113 -4 15 -16 36 -28 46 -39 33 -66 22 -150 -61z"/>
<path d="M4741 2264 c-27 -35 -26 -59 4 -89 23 -23 31 -25 130 -25 99 0 107 2
130 25 31 30 32 65 2 93 -21 20 -34 22 -134 22 -109 0 -112 -1 -132 -26z"/>
<path d="M4500 1680 c-39 -39 -27 -69 64 -158 46 -45 88 -82 94 -82 37 0 82
45 82 82 0 6 -37 48 -82 94 -89 91 -119 103 -158 64z"/>
</g>
</svg>
