<?xml version="1.0" standalone="no"?>
<!DOCTYPE svg PUBLIC "-//W3C//DTD SVG 20010904//EN"
 "http://www.w3.org/TR/2001/REC-SVG-20010904/DTD/svg10.dtd">
<svg version="1.0" xmlns="http://www.w3.org/2000/svg"
 width="1024.000000pt" height="1024.000000pt" viewBox="0 0 1024.000000 1024.000000"
 preserveAspectRatio="xMidYMid meet">

<g transform="translate(256.000000,712.000000) scale(0.100000,-0.100000)"
fill="currentColor" stroke="currentColor">
<path d="M1037 4934 c-354 -64 -637 -352 -703 -714 -21 -118 -18 -166 11 -195
32 -33 77 -33 103 -1 13 18 21 49 26 105 29 355 312 638 667 667 97 8 129 28
129 79 0 72 -67 89 -233 59z"/>
<path d="M2494 4757 c-104 -70 -2470 -1830 -2481 -1845 -19 -23 -16 -56 8 -86
l20 -26 260 0 259 0 2 -1306 3 -1306 24 -19 c23 -19 68 -19 1971 -19 1902 0
1948 0 1971 19 l24 19 3 278 c2 190 -1 286 -8 305 -22 53 -103 59 -129 10 -7
-12 -11 -107 -11 -250 l0 -231 -1850 0 -1850 0 0 1296 c0 826 -4 1302 -10
1314 -17 31 -67 40 -232 40 l-160 0 1126 835 1126 836 392 -291 c412 -305 421
-310 469 -271 l24 19 3 281 3 281 399 0 400 0 0 -629 0 -630 23 -24 c12 -14
138 -111 280 -216 l259 -191 -160 0 c-165 0 -215 -9 -232 -40 -14 -27 -13
-1815 1 -1841 25 -48 105 -44 128 7 8 18 11 264 11 874 l0 850 259 0 260 0 20
26 c26 33 27 68 3 92 -9 9 -171 131 -359 271 l-343 254 -2 654 -3 655 -24 19
c-22 18 -46 19 -521 19 -488 0 -498 0 -524 -21 l-26 -20 0 -240 c0 -131 -3
-239 -8 -239 -4 0 -153 109 -332 242 -349 259 -376 278 -401 278 -10 0 -39
-15 -65 -33z"/>
<path d="M1085 4618 c-27 -5 -87 -27 -132 -49 -99 -47 -192 -135 -241 -227
-36 -67 -72 -194 -72 -254 0 -75 81 -117 127 -65 13 14 24 48 30 94 29 194
160 326 350 355 92 13 123 35 123 84 0 66 -60 86 -185 62z"/>
<path d="M1140 4301 c-102 -31 -171 -116 -174 -213 -1 -41 3 -53 23 -69 50
-41 111 -11 125 60 8 46 31 69 75 77 76 14 106 80 56 129 -25 26 -57 30 -105
16z"/>
<path d="M2535 3340 c-38 -15 -49 -39 -53 -123 -6 -136 27 -192 102 -173 43
11 59 62 54 169 -3 70 -8 91 -24 106 -24 24 -53 32 -79 21z"/>
<path d="M1660 2970 c-12 -12 -20 -33 -20 -53 0 -29 12 -45 79 -110 43 -42 86
-77 94 -77 54 0 96 55 79 101 -6 13 -41 54 -80 92 -77 74 -114 85 -152 47z"/>
<path d="M3308 2923 c-39 -38 -74 -79 -80 -92 -17 -46 25 -101 79 -101 8 0 51
35 94 77 71 69 79 80 79 114 0 44 -27 69 -73 69 -22 0 -46 -16 -99 -67z"/>
<path d="M2264 2700 c-172 -25 -309 -166 -335 -343 -5 -34 -9 -241 -9 -459 l0
-398 -94 0 c-142 0 -141 1 -141 -189 0 -143 1 -152 23 -173 l23 -23 829 0 829
0 23 23 c22 21 23 30 23 173 0 190 1 189 -141 189 l-94 0 0 398 c0 218 -4 425
-9 459 -27 182 -162 317 -344 344 -73 10 -509 10 -583 -1z m638 -168 c26 -13
61 -40 79 -59 65 -75 64 -64 64 -538 l0 -430 -122 -3 -121 -3 -4 228 c-3 208
-5 232 -25 275 -85 186 -340 185 -427 -2 -19 -41 -21 -68 -24 -273 l-4 -228
-121 3 -122 3 -3 395 c-1 235 2 417 8 450 18 100 99 183 196 200 27 5 168 8
314 7 255 -2 267 -3 312 -25z m-281 -568 c24 -25 24 -27 24 -242 l0 -217 -82
-3 -83 -3 0 222 c0 215 1 224 22 246 31 33 87 31 119 -3z m667 -656 l-3 -43
-725 0 -725 0 -3 43 -3 42 731 0 731 0 -3 -42z"/>
<path d="M1305 2120 c-25 -28 -23 -76 3 -103 18 -17 37 -22 97 -25 93 -5 140
3 166 29 25 25 24 74 -1 99 -18 18 -33 20 -133 20 -101 0 -116 -2 -132 -20z"/>
<path d="M3550 2120 c-25 -25 -26 -74 -1 -99 26 -26 73 -34 166 -29 60 3 79 8
97 25 26 27 28 75 3 103 -16 18 -31 20 -132 20 -100 0 -115 -2 -133 -20z"/>
</g>
</svg>
