<?xml version="1.0" standalone="no"?>
<!DOCTYPE svg PUBLIC "-//W3C//DTD SVG 20010904//EN"
 "http://www.w3.org/TR/2001/REC-SVG-20010904/DTD/svg10.dtd">
<svg version="1.0" xmlns="http://www.w3.org/2000/svg"
 width="512.000000pt" height="512.000000pt" viewBox="0 0 512.000000 512.000000"
 preserveAspectRatio="xMidYMid meet">

<g transform="translate(0.000000,512.000000) scale(0.100000,-0.100000)"
fill="currentColor" stroke="currentColor">
<path d="M2423 4175 c-86 -19 -165 -59 -327 -166 -300 -198 -497 -260 -885
-279 -165 -8 -177 -10 -236 -39 -59 -29 -111 -76 -162 -146 l-22 -30 -1 203 0
202 -295 0 -295 0 0 -1495 0 -1495 2360 0 2360 0 0 1495 0 1495 -295 0 -295 0
0 -202 -1 -203 -22 30 c-51 70 -103 117 -162 146 -59 29 -71 31 -236 39 -388
19 -582 80 -884 279 -77 51 -168 106 -203 122 -117 56 -267 73 -399 44z m97
-1620 l0 -1545 -865 0 -865 0 2 1163 3 1162 39 79 c47 93 120 177 179 204 32
16 73 22 177 27 421 20 630 84 933 284 192 127 282 170 360 171 l37 0 0 -1545z
m261 1503 c41 -19 137 -76 213 -127 306 -203 514 -266 936 -286 104 -5 145
-11 177 -27 59 -27 132 -111 179 -204 l39 -79 3 -1163 2 -1162 -865 0 -865 0
0 1546 0 1547 54 -6 c30 -3 87 -21 127 -39z m-2071 -1638 l0 -1410 -215 0
-215 0 0 1410 0 1410 215 0 215 0 0 -1410z m4130 0 l0 -1410 -215 0 -215 0 0
1410 0 1410 215 0 215 0 0 -1410z"/>
<path d="M2245 3730 c-86 -10 -145 -36 -270 -119 -219 -143 -342 -184 -614
-203 -154 -11 -166 -13 -214 -42 -59 -36 -151 -148 -167 -204 -15 -51 -24
-566 -15 -794 l7 -188 684 0 684 0 0 780 c0 737 -1 780 -17 779 -10 -1 -45 -5
-78 -9z m15 -775 l0 -695 -65 0 -65 0 2 678 3 677 50 17 c28 9 56 17 63 18 9
0 12 -145 12 -695z m-210 -50 l0 -645 -70 0 -70 0 0 605 0 604 58 40 c31 22
63 40 70 40 9 1 12 -134 12 -644z m-220 -60 l0 -585 -65 0 -65 0 0 558 0 558
63 26 c34 14 63 26 65 27 1 0 2 -262 2 -584z m-220 -40 l0 -545 -65 0 -65 0 0
535 0 535 23 4 c12 3 31 7 42 9 11 3 30 5 43 6 l22 1 0 -545z m-210 -15 l0
-530 -65 0 -65 0 0 530 0 530 65 0 65 0 0 -530z m-220 -15 l0 -515 -65 0 -65
0 0 427 c0 409 1 428 20 469 18 37 95 134 106 134 2 0 4 -232 4 -515z"/>
<path d="M2780 2960 l0 -780 684 0 684 0 7 198 c9 236 0 732 -15 784 -16 57
-108 168 -168 204 -49 29 -61 32 -180 39 -156 8 -269 27 -373 62 -75 24 -116
47 -331 179 -93 58 -154 80 -245 88 l-63 6 0 -780z m174 666 l36 -15 0 -675 0
-676 -65 0 -65 0 0 696 0 697 29 -6 c17 -4 46 -13 65 -21z m197 -116 l59 -41
0 -604 0 -605 -70 0 -70 0 0 645 c0 446 3 645 11 645 5 0 37 -18 70 -40z m269
-692 l0 -558 -65 0 -65 0 0 584 0 583 65 -25 65 -26 0 -558z m213 515 c4 -2 7
-245 7 -539 l0 -534 -65 0 -65 0 0 546 0 545 58 -7 c31 -3 60 -8 65 -11z m217
-543 l0 -530 -65 0 -65 0 0 530 0 530 65 0 65 0 0 -530z m199 367 c20 -42 21
-58 21 -470 l0 -427 -65 0 -65 0 0 518 1 517 43 -47 c25 -27 54 -67 65 -91z"/>
</g>
</svg>
