<?xml version="1.0" standalone="no"?>
<!DOCTYPE svg PUBLIC "-//W3C//DTD SVG 20010904//EN"
 "http://www.w3.org/TR/2001/REC-SVG-20010904/DTD/svg10.dtd">
<svg version="1.0" xmlns="http://www.w3.org/2000/svg"
 width="512.000000pt" height="512.000000pt" viewBox="0 0 512.000000 512.000000"
 preserveAspectRatio="xMidYMid meet">

<g transform="translate(0.000000,512.000000) scale(0.100000,-0.100000)"
fill="currentColor" stroke="currentColor">
<path d="M1014 5101 c-49 -22 -88 -70 -103 -126 -15 -57 -15 -4773 0 -4830 15
-56 54 -104 103 -126 39 -18 99 -19 1591 -19 1482 0 1552 1 1590 19 50 22 91
69 105 119 6 22 10 187 10 418 0 371 -1 382 -21 408 -26 33 -79 36 -109 6 -19
-19 -20 -33 -20 -401 0 -243 -4 -387 -10 -400 -11 -19 -38 -19 -1545 -19
-1507 0 -1534 0 -1545 19 -7 14 -10 777 -10 2395 0 2145 2 2376 16 2390 14 14
168 16 1544 16 1502 0 1529 0 1540 -19 7 -13 10 -612 10 -1864 0 -1742 1
-1846 18 -1865 9 -12 29 -24 44 -28 22 -5 33 0 58 24 l30 30 0 1849 c0 1240
-4 1860 -10 1885 -14 50 -55 97 -105 119 -38 18 -108 19 -1590 19 -1492 0
-1552 -1 -1591 -19z"/>
<path d="M1200 4820 c-45 -45 -11 -120 54 -120 37 0 76 36 76 70 0 10 -9 29
-21 44 -26 33 -79 36 -109 6z"/>
<path d="M3901 4814 c-12 -15 -21 -34 -21 -44 0 -10 9 -29 21 -44 41 -52 129
-23 129 44 0 67 -88 96 -129 44z"/>
<path d="M2470 4745 c-178 -40 -349 -174 -427 -335 -54 -111 -68 -174 -67
-295 2 -171 65 -315 190 -439 63 -62 172 -129 254 -155 167 -52 373 -24 525
74 208 132 324 389 285 626 -16 98 -36 144 -66 158 -35 16 -47 14 -79 -10 -30
-24 -30 -32 -4 -176 43 -247 -147 -503 -403 -543 -260 -40 -508 145 -548 408
-28 176 56 368 202 465 154 101 333 112 494 31 79 -40 115 -43 144 -12 26 28
26 68 0 96 -26 28 -119 75 -190 96 -78 24 -230 29 -310 11z"/>
<path d="M2513 4456 c-182 -59 -283 -233 -238 -408 40 -160 168 -260 330 -260
95 -1 170 29 236 93 73 71 103 143 103 244 0 95 -28 167 -93 238 -78 85 -233
127 -338 93z m197 -170 c48 -31 78 -81 86 -139 10 -68 -31 -147 -94 -184 -191
-112 -388 141 -231 298 21 21 53 43 71 48 50 16 126 5 168 -23z"/>
<path d="M2555 4175 c-14 -13 -25 -36 -25 -50 0 -14 11 -37 25 -50 13 -14 36
-25 50 -25 33 0 75 41 75 73 0 68 -78 100 -125 52z"/>
<path d="M1544 3319 c-17 -19 -19 -39 -19 -246 0 -224 0 -225 24 -244 23 -18
54 -19 1058 -19 l1034 0 24 25 c25 24 25 24 25 238 0 202 -1 216 -21 241 l-20
26 -794 0 -794 0 -20 -26 c-49 -62 0 -124 95 -124 l34 0 0 -115 0 -115 -250 0
-250 0 0 115 0 115 40 0 c94 0 143 71 90 128 -19 20 -31 22 -129 22 -97 0
-110 -2 -127 -21z m1346 -244 l0 -115 -285 0 -285 0 0 115 0 115 285 0 285 0
0 -115z m650 0 l0 -115 -250 0 -250 0 0 115 0 115 250 0 250 0 0 -115z"/>
<path d="M231 2804 c-24 -30 -25 -43 -10 -77 15 -32 354 -227 396 -227 34 0
58 22 68 62 10 41 -25 69 -211 176 -178 102 -209 110 -243 66z"/>
<path d="M4640 2735 c-91 -53 -175 -107 -188 -122 -26 -28 -24 -63 5 -95 31
-35 70 -22 254 84 205 117 226 141 178 202 -35 45 -66 36 -249 -69z"/>
<path d="M1616 2539 c-52 -41 -23 -129 43 -129 71 0 101 80 47 127 -33 28 -56
29 -90 2z"/>
<path d="M1994 2537 c-54 -47 -24 -127 47 -127 66 0 95 88 43 129 -34 27 -57
26 -90 -2z"/>
<path d="M2382 2550 c-22 -9 -42 -46 -42 -76 0 -25 47 -64 78 -64 36 0 72 37
72 74 0 31 -40 76 -67 75 -10 0 -28 -4 -41 -9z"/>
<path d="M2746 2537 c-31 -31 -33 -65 -5 -101 41 -52 129 -19 129 49 0 32 -30
64 -67 71 -26 5 -37 1 -57 -19z"/>
<path d="M3126 2539 c-50 -40 -22 -129 42 -129 81 0 108 106 36 139 -35 16
-48 14 -78 -10z"/>
<path d="M3506 2539 c-52 -41 -23 -129 44 -129 67 0 96 88 44 129 -15 12 -34
21 -44 21 -10 0 -29 -9 -44 -21z"/>
<path d="M1616 2289 c-52 -41 -23 -129 43 -129 71 0 101 80 47 127 -33 28 -56
29 -90 2z"/>
<path d="M1994 2287 c-54 -47 -24 -127 47 -127 66 0 95 88 43 129 -34 27 -57
26 -90 -2z"/>
<path d="M2382 2300 c-22 -9 -42 -46 -42 -76 0 -25 47 -64 78 -64 36 0 72 37
72 74 0 31 -40 76 -67 75 -10 0 -28 -4 -41 -9z"/>
<path d="M2746 2287 c-31 -31 -33 -65 -5 -101 41 -52 129 -19 129 49 0 32 -30
64 -67 71 -26 5 -37 1 -57 -19z"/>
<path d="M3126 2289 c-50 -40 -22 -129 42 -129 81 0 108 106 36 139 -35 16
-48 14 -78 -10z"/>
<path d="M3506 2289 c-52 -41 -23 -129 44 -129 67 0 96 88 44 129 -15 12 -34
21 -44 21 -10 0 -29 -9 -44 -21z"/>
<path d="M121 2184 c-26 -33 -27 -65 -2 -95 19 -24 22 -24 234 -27 214 -3 215
-3 242 21 36 31 39 82 6 109 -21 16 -44 18 -241 18 l-219 0 -20 -26z"/>
<path d="M4519 2192 c-33 -27 -30 -78 6 -109 27 -24 28 -24 242 -21 212 3 215
3 234 27 25 30 24 62 -2 95 l-20 26 -219 0 c-197 0 -220 -2 -241 -18z"/>
<path d="M1616 2039 c-52 -41 -23 -129 43 -129 71 0 101 80 47 127 -33 28 -56
29 -90 2z"/>
<path d="M1994 2037 c-54 -47 -24 -127 47 -127 66 0 95 88 43 129 -34 27 -57
26 -90 -2z"/>
<path d="M2382 2050 c-22 -9 -42 -46 -42 -76 0 -25 47 -64 78 -64 36 0 72 37
72 74 0 31 -40 76 -67 75 -10 0 -28 -4 -41 -9z"/>
<path d="M2746 2037 c-31 -31 -33 -65 -5 -101 41 -52 129 -19 129 49 0 32 -30
64 -67 71 -26 5 -37 1 -57 -19z"/>
<path d="M3126 2039 c-50 -40 -22 -129 42 -129 81 0 108 106 36 139 -35 16
-48 14 -78 -10z"/>
<path d="M3506 2039 c-52 -41 -23 -129 44 -129 67 0 96 88 44 129 -15 12 -34
21 -44 21 -10 0 -29 -9 -44 -21z"/>
<path d="M1616 1789 c-52 -41 -23 -129 43 -129 71 0 101 80 47 127 -33 28 -56
29 -90 2z"/>
<path d="M1994 1787 c-54 -47 -24 -127 47 -127 66 0 95 88 43 129 -34 27 -57
26 -90 -2z"/>
<path d="M2382 1800 c-22 -9 -42 -46 -42 -76 0 -25 47 -64 78 -64 36 0 72 37
72 74 0 31 -40 76 -67 75 -10 0 -28 -4 -41 -9z"/>
<path d="M2746 1787 c-31 -31 -33 -65 -5 -101 41 -52 129 -19 129 49 0 32 -30
64 -67 71 -26 5 -37 1 -57 -19z"/>
<path d="M3126 1789 c-50 -40 -22 -129 42 -129 81 0 108 106 36 139 -35 16
-48 14 -78 -10z"/>
<path d="M3506 1789 c-52 -41 -23 -129 44 -129 67 0 96 88 44 129 -15 12 -34
21 -44 21 -10 0 -29 -9 -44 -21z"/>
<path d="M410 1647 c-182 -107 -209 -131 -196 -180 8 -34 58 -61 90 -50 13 4
100 53 194 107 183 106 203 126 183 179 -11 29 -39 47 -73 47 -13 -1 -102 -47
-198 -103z"/>
<path d="M4467 1739 c-10 -6 -23 -22 -28 -37 -20 -52 0 -72 183 -178 94 -54
181 -103 194 -107 32 -11 82 16 90 50 13 49 -14 73 -196 180 -171 100 -206
113 -243 92z"/>
<path d="M1549 1361 l-24 -19 -3 -296 -3 -297 30 -29 29 -30 1021 0 c726 0
1027 3 1044 11 44 20 47 43 47 343 0 271 -1 284 -21 310 l-20 26 -1039 0
c-1007 0 -1038 -1 -1061 -19z m1991 -326 l0 -195 -932 2 -933 3 -3 193 -2 192
935 0 935 0 0 -195z"/>
<path d="M2551 1084 c-34 -43 -26 -86 20 -110 35 -18 74 -10 94 19 53 76 -57
163 -114 91z"/>
<path d="M1223 415 c-32 -14 -43 -32 -43 -71 0 -61 90 -88 129 -38 26 33 26
54 1 86 -25 32 -49 39 -87 23z"/>
<path d="M3934 419 c-25 -9 -54 -46 -54 -70 0 -33 39 -69 76 -69 59 0 92 57
64 110 -13 23 -59 39 -86 29z"/>
</g>
</svg>
