<?xml version="1.0" standalone="no"?>
<!DOCTYPE svg PUBLIC "-//W3C//DTD SVG 20010904//EN"
 "http://www.w3.org/TR/2001/REC-SVG-20010904/DTD/svg10.dtd">
<svg version="1.0" xmlns="http://www.w3.org/2000/svg"
 width="768.000000pt" height="768.000000pt" viewBox="0 0 768.000000 768.000000"
 preserveAspectRatio="xMidYMid meet">

<g transform="translate(130.000000,580.000000) scale(0.100000,-0.100000)"
fill="currentColor" stroke="currentColor">
<path d="M1463 4748 c-12 -13 -78 -132 -147 -265 -172 -329 -172 -320 28 -463
l112 -80 -6 -52 c-5 -47 -8 -52 -38 -62 -83 -28 -144 -113 -146 -202 l0 -52
-381 -182 c-209 -101 -388 -190 -399 -199 -29 -25 -38 -59 -25 -98 20 -63 31
-64 356 -49 376 17 365 10 389 229 7 73 14 139 14 148 0 15 88 65 98 55 2 -3
-27 -623 -67 -1378 -39 -755 -71 -1381 -71 -1390 0 -15 -9 -18 -49 -18 -73 0
-106 -44 -63 -83 17 -16 121 -17 1285 -17 l1267 0 0 -70 0 -70 -133 0 c-122 0
-136 -2 -152 -20 -15 -16 -17 -26 -9 -48 l9 -27 332 -3 332 -2 17 25 c15 23
15 27 0 50 -16 25 -19 25 -151 25 l-135 0 0 191 0 190 53 -3 52 -3 3 -118 3
-117 399 0 400 0 16 25 c15 23 15 27 0 50 -13 20 -25 25 -56 25 l-40 0 0 65
c0 108 -34 162 -109 172 l-41 6 2 801 3 801 60 3 c42 2 64 8 73 19 17 24 16
233 -2 277 -14 34 18 11 -1039 758 -185 132 -353 246 -372 254 -48 20 -151 18
-200 -5 -22 -10 -174 -113 -338 -230 -164 -116 -303 -213 -309 -214 -5 -1 -35
36 -66 82 -100 149 -125 154 -311 68 -68 -31 -128 -57 -133 -57 -5 0 -26 11
-46 25 -37 25 -37 25 -34 88 6 100 -31 167 -111 208 l-38 20 6 57 c12 126 55
728 55 779 0 44 -5 58 -25 78 -32 33 -93 34 -122 3z m1507 -1403 l0 -125 -126
0 -125 0 7 23 c12 41 44 96 75 131 26 30 136 96 161 96 4 0 8 -56 8 -125z
m223 93 c69 -35 137 -117 161 -195 l7 -23 -125 0 -126 0 0 126 0 125 23 -7
c12 -3 39 -15 60 -26z m-1335 -135 c139 -95 152 -106 135 -118 -10 -7 -85 -61
-168 -119 l-150 -106 -6 88 c-4 48 -10 157 -14 241 l-7 155 28 -19 c16 -10 98
-65 182 -122z m-300 -157 l14 -258 -24 -25 c-21 -23 -23 -34 -26 -162 -3 -107
0 -140 10 -149 8 -6 41 -12 73 -14 l60 -3 3 -802 2 -803 -26 0 c-40 0 -93 -30
-109 -61 -9 -17 -15 -57 -15 -104 l0 -75 -121 0 -120 0 6 83 c7 103 135 2560
135 2601 l0 31 62 -1 63 -1 13 -257z m1412 -191 c0 -93 -3 -125 -12 -125 -28
1 -99 41 -142 80 -40 37 -96 130 -96 159 0 7 43 11 125 11 l125 0 0 -125z
m385 103 c-14 -47 -60 -120 -92 -149 -34 -29 -123 -79 -143 -79 -6 0 -10 46
-10 125 l0 125 126 0 125 0 -6 -22z m953 -1325 l2 -803 -58 0 -58 0 -58 252
c-32 139 -64 265 -72 279 -28 55 -52 59 -396 59 -295 0 -315 -1 -346 -20 -18
-11 -37 -31 -43 -44 -6 -13 -37 -136 -69 -272 l-57 -249 -131 -3 -132 -3 0
434 c0 417 -1 435 -20 459 -37 47 -53 49 -422 46 l-346 -3 -26 -24 c-14 -14
-30 -41 -36 -60 -6 -21 -10 -205 -10 -443 l0 -408 -130 0 -130 0 0 805 0 805
1268 -2 1267 -3 3 -802z m-1520 -505 l2 -538 -325 0 -325 0 0 533 c0 294 3
537 7 540 4 4 149 6 322 5 l316 -3 3 -537z m692 140 c0 -29 -3 -77 -6 -105
l-7 -53 -72 0 -72 0 22 93 c12 52 25 99 29 105 4 7 29 12 57 12 l49 0 0 -52z
m273 45 c3 -5 8 -52 12 -105 l7 -98 -100 0 -100 0 4 38 c2 20 6 67 10 105 l6
67 78 0 c43 0 81 -3 83 -7z m244 -88 c12 -49 22 -96 23 -102 0 -9 -20 -13 -70
-13 -64 0 -70 2 -74 23 -9 41 -14 175 -8 182 3 3 29 5 57 3 l50 -3 22 -90z
m-542 -322 c-4 -54 -9 -101 -12 -105 -2 -5 -42 -8 -89 -8 -69 0 -86 3 -91 16
-5 13 16 129 32 182 3 8 29 12 86 12 l81 0 -7 -97z m329 51 c3 -26 6 -73 6
-105 l0 -59 -120 0 -120 0 6 93 c3 50 7 98 10 105 2 8 33 12 107 12 l104 0 7
-46z m286 -45 c12 -50 19 -98 16 -105 -4 -11 -28 -14 -96 -14 -79 0 -90 2 -91
18 0 9 -4 56 -7 105 l-7 87 82 0 81 0 22 -91z"/>
<path d="M2626 1264 c-32 -31 -8 -84 38 -84 29 0 46 18 46 50 0 14 -5 31 -12
38 -17 17 -54 15 -72 -4z"/>
<path d="M960 4457 c-157 -65 -266 -195 -306 -364 -25 -104 -11 -218 40 -334
5 -12 0 -18 -23 -22 -37 -8 -54 -37 -42 -70 11 -28 27 -33 136 -42 62 -6 83
-4 92 6 17 21 35 187 22 210 -14 28 -65 29 -86 2 -23 -30 -38 24 -38 142 0
104 2 114 33 177 40 81 129 168 199 194 112 41 113 41 113 71 0 58 -47 68
-140 30z"/>
<path d="M1929 4413 c-25 -6 -119 -129 -119 -155 0 -30 5 -36 73 -91 33 -27
69 -47 83 -47 28 0 57 39 48 64 -18 47 129 -20 200 -92 93 -94 127 -215 99
-357 -18 -93 -12 -115 33 -115 47 0 70 51 81 175 15 189 -100 384 -276 469
-40 19 -94 37 -121 41 -52 7 -53 8 -41 40 15 35 -22 77 -60 68z"/>
</g>
</svg>
