<?xml version="1.0" standalone="no"?>
<!DOCTYPE svg PUBLIC "-//W3C//DTD SVG 20010904//EN"
 "http://www.w3.org/TR/2001/REC-SVG-20010904/DTD/svg10.dtd">
<svg version="1.0" xmlns="http://www.w3.org/2000/svg"
 width="512.000000pt" height="512.000000pt" viewBox="0 0 512.000000 512.000000"
 preserveAspectRatio="xMidYMid meet">

<g transform="translate(0.000000,512.000000) scale(0.100000,-0.100000)"
fill="currentColor" stroke="currentColor">
<path d="M745 5095 c-23 -22 -25 -32 -25 -115 0 -83 2 -93 25 -115 15 -16 36
-25 55 -25 19 0 40 9 55 25 23 22 25 32 25 115 0 83 -2 93 -25 115 -15 16 -36
25 -55 25 -19 0 -40 -9 -55 -25z"/>
<path d="M254 4898 c-24 -11 -44 -48 -44 -79 0 -25 95 -128 134 -144 41 -18
84 -1 101 38 18 44 4 76 -65 141 -60 57 -83 65 -126 44z"/>
<path d="M1223 4858 c-60 -57 -82 -96 -75 -133 9 -49 70 -73 118 -47 34 18
124 120 124 141 0 50 -41 91 -91 91 -11 0 -45 -24 -76 -52z"/>
<path d="M706 4710 c-63 -16 -153 -70 -197 -117 -22 -24 -55 -74 -72 -111 -29
-61 -32 -76 -32 -163 0 -90 2 -99 37 -171 45 -91 103 -147 196 -191 61 -29 76
-32 162 -32 86 0 101 3 162 32 93 44 151 100 196 191 35 72 37 81 37 172 0 91
-2 100 -37 172 -68 136 -188 217 -336 224 -42 2 -94 -1 -116 -6z m168 -162
c86 -26 166 -136 166 -228 0 -124 -116 -240 -240 -240 -63 0 -114 23 -165 75
-102 101 -102 229 0 330 70 71 145 90 239 63z"/>
<path d="M25 4375 c-16 -15 -25 -36 -25 -55 0 -19 9 -40 25 -55 22 -23 32 -25
115 -25 83 0 93 2 115 25 33 32 33 78 0 110 -22 23 -32 25 -115 25 -83 0 -93
-2 -115 -25z"/>
<path d="M1345 4375 c-16 -15 -25 -36 -25 -55 0 -19 9 -40 25 -55 22 -23 32
-25 115 -25 83 0 93 2 115 25 16 15 25 36 25 55 0 19 -9 40 -25 55 -22 23 -32
25 -115 25 -83 0 -93 -2 -115 -25z"/>
<path d="M2592 4303 c-11 -10 -417 -560 -903 -1223 -643 -878 -884 -1214 -887
-1237 -3 -24 2 -38 22 -57 l25 -26 1225 0 c673 0 1231 3 1240 6 8 3 93 111
187 240 94 129 173 234 175 234 2 0 4 -54 4 -120 0 -102 -2 -120 -15 -120 -9
0 -27 -11 -40 -25 l-25 -24 0 -496 0 -495 -535 0 -536 0 -24 -25 c-25 -24 -25
-24 -25 -240 l0 -215 -160 0 -160 0 0 55 c0 46 -4 60 -25 80 -22 23 -32 25
-120 25 l-95 0 0 295 0 296 -25 24 c-22 23 -32 25 -120 25 l-95 0 0 95 c0 88
-2 98 -25 120 -23 24 -28 25 -175 25 -147 0 -152 -1 -175 -25 -23 -22 -25 -32
-25 -120 l0 -95 -320 0 -320 0 0 95 c0 88 -2 98 -25 120 -23 24 -28 25 -175
25 -147 0 -152 -1 -175 -25 -23 -22 -25 -32 -25 -120 l0 -95 -95 0 c-88 0 -98
-2 -120 -25 l-25 -24 0 -591 0 -591 25 -24 24 -25 911 0 911 0 24 25 c14 13
25 31 25 40 0 12 16 15 95 15 88 0 98 2 120 25 23 22 25 32 25 120 l0 95 215
0 c288 0 265 -23 265 265 l0 215 480 0 480 0 0 -40 0 -40 -95 0 c-88 0 -98 -2
-120 -25 -24 -23 -25 -29 -25 -160 l0 -135 -135 0 c-131 0 -137 -1 -160 -25
-24 -23 -25 -28 -25 -175 0 -147 1 -152 25 -175 l24 -25 831 0 831 0 24 25
c24 23 25 28 25 175 0 147 -1 152 -25 175 -23 24 -29 25 -160 25 l-135 0 0
135 c0 131 -1 137 -25 160 -22 23 -32 25 -120 25 l-95 0 0 615 0 616 -25 24
c-13 14 -31 25 -40 25 -13 0 -15 51 -15 453 l0 452 480 655 c367 500 480 661
480 682 0 17 -10 39 -25 53 l-24 25 -1229 0 c-1157 0 -1231 -1 -1250 -17z
m666 -175 c-13 -18 -66 -90 -117 -160 l-93 -128 -300 0 c-237 0 -298 3 -292
13 7 11 38 53 186 255 l39 52 301 0 300 0 -24 -32z m800 0 c-13 -18 -66 -90
-117 -160 l-93 -128 -300 0 c-237 0 -298 3 -292 13 7 11 38 53 186 255 l39 52
301 0 300 0 -24 -32z m800 0 c-13 -18 -66 -90 -117 -160 l-93 -128 -300 0
c-237 0 -298 3 -292 13 7 11 38 53 186 255 l39 52 301 0 300 0 -24 -32z
m-1981 -520 c-29 -40 -82 -112 -117 -160 l-64 -88 -299 0 c-164 0 -297 4 -295
8 2 5 53 76 113 160 l110 151 303 0 303 1 -54 -72z m800 0 c-29 -40 -82 -112
-117 -160 l-64 -88 -299 0 c-164 0 -297 4 -295 8 2 5 53 76 113 160 l110 151
303 0 303 1 -54 -72z m800 0 c-29 -40 -82 -112 -117 -160 l-64 -88 -299 0
c-164 0 -297 4 -295 8 2 5 53 76 113 160 l110 151 303 0 303 1 -54 -72z
m-1907 -414 c0 -3 -51 -75 -112 -160 l-113 -153 -297 -1 c-164 0 -298 3 -298
6 0 3 51 75 113 160 l112 153 298 1 c163 0 297 -3 297 -6z m800 0 c0 -3 -51
-75 -112 -160 l-113 -153 -297 -1 c-164 0 -298 3 -298 6 0 3 51 75 113 160
l112 153 298 1 c163 0 297 -3 297 -6z m798 -3 c-1 -6 -52 -77 -113 -160 l-110
-150 -297 -1 c-164 0 -298 3 -298 6 0 3 51 75 113 160 l112 153 298 1 c183 0
297 -4 295 -9z m-1950 -475 c2 -2 -48 -74 -110 -159 l-113 -156 -303 0 -303
-1 54 73 c29 39 83 113 119 162 l66 90 293 -3 c161 -2 295 -4 297 -6z m800 -4
c-1 -5 -52 -76 -113 -160 l-110 -151 -303 0 -303 -1 54 73 c29 39 82 111 117
160 l64 87 299 0 c164 0 297 -4 295 -8z m800 0 c-1 -4 -52 -76 -113 -159
l-110 -152 -303 0 -303 -1 54 73 c29 39 82 111 117 160 l64 87 299 0 c164 0
297 -4 295 -8z m182 -372 l0 -340 -80 0 -80 0 0 235 0 234 77 106 c43 58 79
105 80 105 2 0 3 -153 3 -340z m-2403 -100 l274 -5 -114 -155 -114 -155 -302
-3 -302 -2 38 53 c193 268 216 297 231 284 11 -8 94 -13 289 -17z m1073 -3 c0
-2 -51 -72 -113 -157 l-114 -155 -303 -3 -303 -2 25 32 c13 18 66 90 117 161
l93 127 299 0 c164 0 299 -1 299 -3z m800 0 c0 -2 -51 -72 -113 -157 l-114
-155 -303 -3 -303 -2 25 32 c13 18 66 90 117 161 l93 127 299 0 c164 0 299 -1
299 -3z m610 -957 l0 -560 -160 0 -160 0 0 560 0 560 160 0 160 0 0 -560z
m-3600 40 l0 -40 -40 0 -40 0 0 40 0 40 40 0 40 0 0 -40z m1040 0 l0 -40 -40
0 -40 0 0 40 0 40 40 0 40 0 0 -40z m240 -680 l0 -480 -800 0 -800 0 0 480 0
480 800 0 800 0 0 -480z m2560 -160 l0 -80 -400 0 -400 0 0 80 0 80 400 0 400
0 0 -80z m-2320 -120 l0 -120 -40 0 -40 0 0 120 0 120 40 0 40 0 0 -120z
m2640 -160 l0 -40 -720 0 -720 0 0 40 0 40 720 0 720 0 0 -40z"/>
<path d="M265 1015 l-25 -24 0 -351 0 -351 25 -24 c32 -33 78 -33 110 0 l25
24 0 351 0 351 -25 24 c-15 16 -36 25 -55 25 -19 0 -40 -9 -55 -25z"/>
<path d="M1545 1015 l-25 -24 0 -351 0 -351 25 -24 c32 -33 78 -33 110 0 l25
24 0 351 0 351 -25 24 c-15 16 -36 25 -55 25 -19 0 -40 -9 -55 -25z"/>
<path d="M911 943 c-22 -19 -111 -267 -111 -311 0 -28 42 -72 70 -72 18 0 16
-7 -25 -67 -27 -40 -45 -79 -45 -96 0 -55 69 -94 119 -68 30 16 201 284 201
314 0 42 -40 77 -89 77 l-40 0 25 72 c30 90 30 113 -1 143 -29 30 -74 33 -104
8z"/>
<path d="M343 3965 c-38 -16 -133 -119 -133 -144 0 -50 41 -91 91 -91 21 0
123 90 141 124 38 72 -25 142 -99 111z"/>
<path d="M1204 3972 c-47 -7 -72 -70 -46 -118 18 -34 120 -124 141 -124 50 0
91 41 91 91 0 26 -103 135 -138 146 -15 5 -37 7 -48 5z"/>
<path d="M745 3775 c-23 -22 -25 -32 -25 -115 0 -83 2 -93 25 -115 15 -16 36
-25 55 -25 19 0 40 9 55 25 23 22 25 32 25 115 0 83 -2 93 -25 115 -15 16 -36
25 -55 25 -19 0 -40 -9 -55 -25z"/>
</g>
</svg>
