<?xml version="1.0" standalone="no"?>
<!DOCTYPE svg PUBLIC "-//W3C//DTD SVG 20010904//EN"
 "http://www.w3.org/TR/2001/REC-SVG-20010904/DTD/svg10.dtd">
<svg version="1.0" xmlns="http://www.w3.org/2000/svg"
 width="512.000000pt" height="512.000000pt" viewBox="0 0 512.000000 512.000000"
 preserveAspectRatio="xMidYMid meet">

<g transform="translate(0.000000,512.000000) scale(0.100000,-0.100000)"
fill="currentColor" stroke="currentColor">
<path d="M235 4396 c-95 -30 -162 -88 -204 -176 l-26 -55 0 -465 0 -465 26
-55 c33 -70 89 -126 159 -159 54 -25 61 -26 288 -29 l232 -3 0 -257 c0 -285
14 -444 55 -610 166 -679 710 -1212 1396 -1366 617 -138 1260 52 1711 506 299
302 486 699 527 1122 6 60 11 221 11 357 l0 248 233 3 c226 3 233 4 287 29 70
33 126 89 159 159 l26 55 0 465 0 465 -26 55 c-33 70 -89 126 -159 159 l-55
26 -2300 2 c-1835 1 -2308 -1 -2340 -11z m4635 -168 c30 -15 53 -37 67 -63 22
-40 23 -44 23 -465 0 -421 -1 -425 -23 -465 -14 -26 -37 -48 -67 -62 l-44 -23
-597 0 -598 0 -55 85 c-107 163 -271 312 -449 406 -402 211 -873 183 -1257
-74 -101 -68 -254 -223 -324 -329 l-58 -88 -597 0 -597 0 -44 23 c-30 14 -53
36 -67 62 -22 40 -23 44 -23 465 0 421 1 425 23 465 14 26 37 48 67 63 l44 22
2266 0 2266 0 44 -22z m-2050 -637 c293 -79 512 -249 668 -517 23 -40 49 -74
58 -78 8 -3 171 -6 360 -6 l344 0 0 -250 c0 -356 -17 -493 -90 -713 -142 -426
-445 -775 -849 -977 -270 -136 -593 -199 -884 -172 -166 15 -251 33 -402 83
-530 176 -942 610 -1092 1149 -47 170 -55 249 -60 573 l-5 307 345 0 c393 0
374 -4 422 90 36 71 138 202 203 261 137 124 323 219 509 260 119 26 360 21
473 -10z"/>
<path d="M2455 2840 c-394 -44 -720 -328 -821 -715 -32 -123 -37 -315 -11
-431 125 -554 686 -885 1218 -718 331 104 579 375 656 718 26 116 21 308 -11
431 -89 341 -354 605 -690 690 -105 26 -241 36 -341 25z m305 -181 c206 -52
404 -207 504 -398 61 -117 88 -228 89 -366 0 -137 -16 -218 -68 -332 -101
-220 -292 -382 -524 -445 -58 -16 -106 -21 -201 -21 -142 0 -235 20 -341 73
-221 111 -374 299 -435 535 -28 109 -24 285 10 398 46 154 118 272 228 372
201 183 472 250 738 184z"/>
<path d="M2400 2297 c-226 -77 -362 -262 -364 -492 -2 -392 402 -651 750 -480
280 137 383 477 226 744 -61 104 -185 198 -311 235 -82 24 -220 21 -301 -7z
m313 -167 c68 -32 142 -103 171 -163 95 -193 20 -408 -174 -501 -57 -27 -76
-31 -150 -31 -74 0 -93 4 -150 31 -300 143 -282 565 30 678 67 24 209 17 273
-14z"/>
<path d="M3768 2786 c-48 -13 -61 -21 -112 -65 -71 -64 -96 -191 -55 -281 45
-101 126 -154 234 -154 85 0 135 23 192 88 67 76 82 179 39 271 -53 114 -180
174 -298 141z m107 -161 c51 -25 72 -96 40 -141 -19 -28 -69 -48 -101 -40 -87
22 -100 141 -20 180 39 19 41 19 81 1z"/>
</g>
</svg>
